<svg width="22" height="22" viewBox="0 0 22 22" fill="none" xmlns="http://www.w3.org/2000/svg">
<path d="M21.8826 17.3435C20.8611 15.2109 19.1189 13.8195 16.6298 13.1985C16.2559 13.1052 15.8586 13.1978 15.5603 13.4417L13.4932 15.1308C13.0895 15.4606 12.519 15.503 12.0755 15.2294C9.88888 13.8806 8.11952 12.1113 6.77063 9.92459C6.497 9.481 6.53941 8.91051 6.86926 8.50689L8.55829 6.43975C8.80219 6.14126 8.8948 5.74413 8.80154 5.37026C8.1805 2.88129 6.78913 1.13906 4.65651 0.117451C4.31236 -0.0473084 3.90664 -0.0382113 3.57012 0.141499C2.49772 0.714284 1.47178 1.36228 0.499787 2.09101C0.12753 2.36999 -0.0601466 2.83147 0.0171817 3.29015C0.715882 7.42851 2.95204 11.7804 6.58572 15.4143C10.2194 19.048 14.5715 21.284 18.7099 21.9828C19.1686 22.0602 19.6299 21.8725 19.9091 21.5002C20.6378 20.5282 21.2858 19.5023 21.8586 18.4299C22.0381 18.0932 22.0474 17.6873 21.8825 17.3433L21.8826 17.3435Z" fill="#F45E40"/>
</svg>
