<svg width="22" height="17" viewBox="0 0 22 17" fill="none" xmlns="http://www.w3.org/2000/svg">
<path d="M1.65007 0C1.32743 0 1.0272 0.0999511 0.773421 0.275068L10.1921 9.32529C10.6918 9.80513 11.2899 9.80513 11.7906 9.32529L21.2264 0.275068C20.9728 0.0999457 20.6724 0 20.3498 0H1.64993H1.65007ZM0.0945699 1.23326C0.0374048 1.41833 0 1.6142 0 1.82132V15.1785C0 16.1875 0.735815 17 1.65008 17H20.3499C21.2639 17 22 16.1877 22 15.1785V1.82132C22 1.61423 21.9626 1.41835 21.9054 1.23304L12.5123 10.2361C11.6366 11.0755 10.3457 11.077 9.47019 10.2361L0.0942454 1.23304L0.0945699 1.23326Z" fill="#020202"/>
</svg>
