<?xml version="1.0" encoding="utf-8"?><svg xmlns="http://www.w3.org/2000/svg" xmlns:xlink="http://www.w3.org/1999/xlink"><symbol viewBox="0 0 22 22" id="call" xmlns="http://www.w3.org/2000/svg"><path d="M21.883 17.343c-1.022-2.132-2.764-3.524-5.253-4.145-.374-.093-.771 0-1.07.244l-2.067 1.689c-.404.33-.974.372-1.418.098a16.056 16.056 0 01-5.304-5.304 1.226 1.226 0 01.098-1.418L8.56 6.44c.243-.299.336-.696.243-1.07C8.18 2.881 6.789 1.14 4.657.117A1.207 1.207 0 003.57.141 23.808 23.808 0 00.5 2.091c-.372.279-.56.74-.483 1.2.699 4.138 2.935 8.49 6.569 12.123 3.633 3.634 7.986 5.87 12.124 6.569.459.077.92-.11 1.2-.483a23.813 23.813 0 001.949-3.07c.18-.337.188-.743.023-1.087z"/></symbol><symbol viewBox="0 0 22 22" id="clock" xmlns="http://www.w3.org/2000/svg"><path d="M11 0a11 11 0 1011 11A11.013 11.013 0 0011 0zM9.35 12.713V5.124h2.089v5.484h4.304v2.09l-6.393.015z"/></symbol><symbol viewBox="0 0 30 31" id="close" xmlns="http://www.w3.org/2000/svg"><path d="M17.015 15.366L29.653 2.354a1.445 1.445 0 00-.058-1.942 1.345 1.345 0 00-1.887-.05L15.07 13.376 2.432.363A1.344 1.344 0 00.584.452a1.445 1.445 0 00-.086 1.902l12.638 13.012L.498 28.38a1.428 1.428 0 00-.496 1.023c-.019.397.127.784.4 1.066.274.282.65.432 1.036.413a1.36 1.36 0 00.994-.51L15.07 17.357 27.708 30.37a1.345 1.345 0 001.847-.09c.502-.515.54-1.34.087-1.901L17.015 15.366z"/></symbol><symbol viewBox="0 0 22 17" id="envelope" xmlns="http://www.w3.org/2000/svg"><path d="M1.65 0c-.323 0-.623.1-.877.275l9.42 9.05c.499.48 1.097.48 1.598 0l9.435-9.05A1.534 1.534 0 0020.35 0H1.65zM.095 1.233A1.957 1.957 0 000 1.821v13.357C0 16.189.736 17 1.65 17h18.7c.914 0 1.65-.812 1.65-1.822V1.822c0-.207-.037-.403-.095-.588l-9.393 9.003c-.875.84-2.166.841-3.042 0L.094 1.233z"/></symbol><symbol viewBox="0 0 19 26" id="mapmark" xmlns="http://www.w3.org/2000/svg"><path d="M9.5 0C4.261 0 0 4.254 0 9.483c0 2.13 1.493 5.516 4.438 10.062a91.97 91.97 0 004.34 6.104.92.92 0 001.445 0 91.958 91.958 0 004.34-6.104C17.506 15 19 11.613 19 9.483 19 4.254 14.74 0 9.5 0zm.037 13.9A4.338 4.338 0 015.2 9.573a4.336 4.336 0 014.337-4.326 4.336 4.336 0 014.337 4.326 4.336 4.336 0 01-4.337 4.325z"/></symbol><symbol viewBox="0 0 30 17" id="vk" xmlns="http://www.w3.org/2000/svg"><path d="M29.597 15.298a2.016 2.016 0 00-.098-.192c-.502-.924-1.46-2.057-2.875-3.402l-.03-.03-.015-.015-.015-.016h-.015c-.642-.626-1.05-1.047-1.22-1.262-.311-.41-.38-.826-.21-1.247.12-.318.572-.99 1.354-2.015.412-.544.738-.98.978-1.308 1.736-2.36 2.49-3.868 2.258-4.525l-.09-.153c-.06-.093-.215-.177-.466-.254-.25-.077-.572-.09-.963-.039l-4.335.03c-.07-.025-.17-.022-.301.009l-.196.046-.076.039-.06.046a.674.674 0 00-.165.161 1.06 1.06 0 00-.15.27 25.379 25.379 0 01-1.61 3.462 32.906 32.906 0 01-1.025 1.654c-.31.467-.571.81-.782 1.031-.21.221-.401.398-.572.531-.17.134-.301.19-.391.17a11 11 0 01-.257-.062 1.015 1.015 0 01-.338-.377 1.717 1.717 0 01-.173-.6 6.755 6.755 0 01-.053-.624 13.37 13.37 0 01.008-.738c.01-.319.015-.534.015-.647 0-.39.007-.813.022-1.27l.038-1.084c.01-.267.015-.549.015-.847 0-.297-.018-.53-.053-.7a2.438 2.438 0 00-.157-.492.824.824 0 00-.309-.37 1.717 1.717 0 00-.504-.207c-.532-.124-1.21-.19-2.032-.2-1.867-.02-3.066.102-3.598.369-.21.113-.401.267-.572.462-.18.225-.205.349-.075.369.602.092 1.029.313 1.28.661l.09.185c.07.134.14.37.21.708.07.339.116.713.136 1.123.05.75.05 1.39 0 1.924s-.098.95-.143 1.247a2.537 2.537 0 01-.203.723c-.09.185-.15.297-.18.338a.262.262 0 01-.076.077c-.13.051-.266.077-.407.077-.14 0-.31-.072-.511-.215a3.643 3.643 0 01-.625-.593 7.919 7.919 0 01-.73-1.054 18.53 18.53 0 01-.843-1.6l-.24-.447a37.11 37.11 0 01-.618-1.254 24.46 24.46 0 01-.692-1.593c-.08-.215-.2-.38-.361-.492l-.076-.046a1.023 1.023 0 00-.24-.131 1.57 1.57 0 00-.347-.1l-4.124.03c-.421 0-.707.098-.858.293l-.06.092a.507.507 0 00-.045.247c0 .112.03.251.09.415a51.299 51.299 0 001.964 4.186c.708 1.344 1.322 2.426 1.844 3.247a38.61 38.61 0 001.596 2.323c.541.729.9 1.196 1.076 1.4.175.206.313.36.414.463l.376.369c.24.246.595.541 1.061.885.467.343.984.682 1.55 1.016a8.3 8.3 0 001.98.815 6.7 6.7 0 002.197.254h1.732c.35-.03.616-.144.797-.338l.06-.078c.04-.06.078-.156.113-.284.035-.128.053-.27.053-.423-.01-.441.022-.839.097-1.193.075-.353.16-.62.256-.8a1.962 1.962 0 01.58-.677.96.96 0 01.12-.054c.241-.082.524-.002.85.239.327.241.633.539.92.893.285.354.629.751 1.03 1.192.402.441.753.77 1.054.985l.3.185c.202.123.462.236.784.338.32.103.601.129.842.077l3.853-.061c.381 0 .678-.065.888-.193.211-.128.336-.27.377-.423.04-.154.042-.328.007-.523a1.96 1.96 0 00-.105-.408z"/></symbol><symbol viewBox="0 0 22 22" id="whatsapp" xmlns="http://www.w3.org/2000/svg"><path fill-rule="evenodd" clip-rule="evenodd" d="M10.898.66A10.231 10.231 0 00.659 10.897c0 2.135.651 4.11 1.808 5.807.087.13.11.292.064.44l-1.04 3.48 3.408-1.176a.512.512 0 01.44.056 10.178 10.178 0 005.559 1.632 10.23 10.23 0 0010.239-10.239A10.23 10.23 0 0010.897.659h.001zM6.707 5.122l1.863 3.08-.776.767a.512.512 0 00-.08.616c1.185 2.05 2.587 3.646 4.552 4.512a.512.512 0 00.568-.104l.824-.824 3.007 1.88c-.333.75-.767 1.195-1.263 1.456-.576.3-1.278.358-2.08.191-1.604-.332-3.541-1.592-5.12-3.207-1.578-1.615-2.8-3.578-3.111-5.176-.156-.799-.087-1.486.208-2.032.254-.47.685-.871 1.408-1.16z"/></symbol></svg>