<svg width="22" height="22" viewBox="0 0 22 22" fill="none" xmlns="http://www.w3.org/2000/svg">
<path d="M11 0C8.08258 0 5.28492 1.15896 3.2218 3.2218C1.15869 5.28464 0 8.08254 0 11C0 13.9175 1.15897 16.7151 3.2218 18.7782C5.28464 20.8413 8.08254 22 11 22C13.9175 22 16.7151 20.841 18.7782 18.7782C20.8413 16.7154 22 13.9175 22 11C21.9965 8.0837 20.8365 5.28819 18.7744 3.226C16.7122 1.16381 13.9164 0.00382402 11.0004 0.00037305L11 0ZM9.34955 12.7131V5.12422H11.4388V10.6085H15.7427V12.6977L9.34955 12.7131Z" fill="#020202"/>
</svg>
