<svg width="30" height="31" viewBox="0 0 30 31" fill="none" xmlns="http://www.w3.org/2000/svg">
<path d="M17.0149 15.3664L29.653 2.35407C30.1371 1.79329 30.1118 0.940497 29.5948 0.411618C29.0781 -0.117594 28.2498 -0.139296 27.7079 0.362681L15.0697 13.375L2.4316 0.362681C1.8858 -0.102995 1.08546 -0.0643212 0.584156 0.45187C0.0828497 0.968061 0.045249 1.7921 0.497533 2.35402L13.1357 15.3664L0.497533 28.3787C0.199712 28.6325 0.0195692 29.0038 0.00155395 29.4016C-0.016844 29.7994 0.128809 30.1865 0.402089 30.4684C0.675762 30.7497 1.05177 30.8997 1.43816 30.8808C1.82452 30.8622 2.1852 30.6767 2.43165 30.3701L15.0698 17.3577L27.7079 30.3701C28.2537 30.8358 29.0541 30.7971 29.5554 30.2809C30.0567 29.7647 30.0943 28.9407 29.642 28.3788L17.0149 15.3664Z" fill="#F45E40"/>
</svg>
