<svg width="19" height="26" viewBox="0 0 19 26" fill="none" xmlns="http://www.w3.org/2000/svg">
<path d="M9.50035 0C4.26147 0 0 4.25416 0 9.48266C0 11.6138 1.49287 14.9995 4.43768 19.5453C6.58113 22.8544 8.75558 25.6223 8.7772 25.6494C8.95148 25.871 9.21809 26 9.5 26C9.78191 26 10.0485 25.8712 10.2228 25.6494C10.2444 25.6224 12.4192 22.8539 14.5623 19.5453C17.5069 14.9992 19 11.6133 19 9.48266C19.0005 4.25399 14.7392 0 9.50035 0ZM9.53682 13.8992C7.14551 13.8992 5.19956 11.9589 5.19956 9.5738C5.19956 7.18872 7.14505 5.2484 9.53682 5.2484C11.9286 5.2484 13.8741 7.18872 13.8741 9.5738C13.8741 11.9589 11.9286 13.8992 9.53682 13.8992Z" fill="#020202"/>
</svg>
