<svg width="30" height="17" viewBox="0 0 30 17" fill="none" xmlns="http://www.w3.org/2000/svg">
<path d="M29.5966 15.2981C29.5616 15.2209 29.529 15.157 29.4986 15.1057C28.9971 14.1821 28.0386 13.0485 26.6238 11.7044L26.5939 11.6737L26.5789 11.6586L26.5638 11.6431H26.5486C25.9065 11.0173 25.4998 10.5964 25.3295 10.381C25.018 9.9706 24.9482 9.55519 25.1185 9.13428C25.2388 8.81626 25.6907 8.14465 26.4731 7.11854C26.8847 6.57473 27.2107 6.13889 27.4514 5.81052C29.1875 3.45074 29.9402 1.9428 29.7093 1.28613L29.6196 1.13267C29.5593 1.04028 29.4038 0.955765 29.1532 0.878687C28.9021 0.80177 28.5811 0.78905 28.1896 0.84031L23.8548 0.870925C23.7846 0.845484 23.6843 0.847856 23.5537 0.878687C23.4232 0.909518 23.358 0.924988 23.358 0.924988L23.2825 0.963528L23.2226 1.00983C23.1724 1.04044 23.1172 1.09429 23.057 1.17126C22.997 1.24796 22.9469 1.33798 22.9068 1.44055C22.4349 2.68195 21.8983 3.83613 21.2961 4.90305C20.9248 5.53924 20.5838 6.09059 20.2724 6.55743C19.9614 7.02411 19.7005 7.36794 19.4899 7.58834C19.2791 7.80896 19.0887 7.9857 18.9178 8.11921C18.7472 8.25278 18.6169 8.30921 18.5267 8.28857C18.4363 8.26792 18.3512 8.24744 18.2705 8.22696C18.1302 8.13457 18.0172 8.00893 17.9321 7.84992C17.8466 7.69091 17.789 7.49078 17.7589 7.24968C17.729 7.00842 17.7112 6.8009 17.7062 6.62642C17.7015 6.45216 17.7037 6.20567 17.7138 5.88766C17.7243 5.56948 17.729 5.3542 17.729 5.24133C17.729 4.85141 17.7364 4.42823 17.7513 3.97169C17.7665 3.51515 17.7788 3.15342 17.7891 2.88693C17.7993 2.62017 17.804 2.33795 17.804 2.04042C17.804 1.74288 17.7863 1.50954 17.7513 1.34019C17.7167 1.17105 17.6636 1.00686 17.5937 0.847694C17.5233 0.688686 17.4203 0.565684 17.2851 0.478364C17.1497 0.391152 16.9813 0.321943 16.7809 0.270522C16.249 0.147466 15.5717 0.080898 14.7487 0.070549C12.8824 0.0500666 11.6832 0.173284 11.1514 0.44004C10.9407 0.552747 10.75 0.706742 10.5795 0.901541C10.3988 1.12733 10.3736 1.25055 10.504 1.27082C11.1062 1.36304 11.5325 1.58366 11.7834 1.93245L11.8738 2.11728C11.9441 2.25063 12.0143 2.48672 12.0846 2.82522C12.1548 3.16371 12.2001 3.53816 12.22 3.94835C12.2701 4.69741 12.2701 5.33862 12.22 5.87203C12.1698 6.40565 12.1223 6.82106 12.077 7.11859C12.0317 7.41613 11.9641 7.65723 11.8738 7.84184C11.7834 8.0265 11.7232 8.13937 11.6931 8.18034C11.663 8.2213 11.6379 8.24712 11.618 8.25725C11.4875 8.30835 11.3519 8.33439 11.2115 8.33439C11.0709 8.33439 10.9004 8.26248 10.6997 8.11878C10.4991 7.97508 10.291 7.7777 10.0752 7.5263C9.8594 7.27485 9.61605 6.92347 9.34502 6.4721C9.0742 6.02074 8.7932 5.48728 8.50219 4.87173L8.26143 4.42532C8.11091 4.13814 7.90531 3.71997 7.6444 3.17121C7.38333 2.62222 7.15258 2.09119 6.95198 1.57821C6.8718 1.36277 6.75133 1.19875 6.5908 1.08588L6.51547 1.03958C6.46538 0.998617 6.38499 0.955119 6.2747 0.908764C6.16425 0.862463 6.04901 0.829259 5.92849 0.808831L1.80432 0.839447C1.38288 0.839447 1.09693 0.937062 0.946364 1.13202L0.886106 1.22425C0.856003 1.27561 0.84082 1.35765 0.84082 1.47057C0.84082 1.58344 0.870923 1.72197 0.931181 1.88599C1.53324 3.33269 2.18796 4.72792 2.89534 6.07189C3.60273 7.41586 4.21744 8.49846 4.73909 9.31872C5.26086 10.1396 5.79269 10.9143 6.33459 11.6425C6.87649 12.371 7.23519 12.8378 7.41069 13.0429C7.58641 13.2484 7.72443 13.402 7.82475 13.5046L8.20111 13.8738C8.44194 14.1201 8.79558 14.4151 9.26219 14.7587C9.72892 15.1025 10.2456 15.441 10.8126 15.7747C11.3796 16.1079 12.0393 16.3798 12.792 16.59C13.5445 16.8005 14.277 16.885 14.9895 16.8442H16.7205C17.0716 16.8132 17.3375 16.7004 17.5183 16.5056L17.5782 16.4284C17.6185 16.3672 17.6562 16.2721 17.6909 16.1441C17.7262 16.0158 17.7437 15.8745 17.7437 15.7209C17.7334 15.2798 17.7662 14.8823 17.8413 14.5284C17.9163 14.1746 18.0018 13.9078 18.0975 13.7282C18.193 13.5487 18.3009 13.3972 18.421 13.2744C18.5413 13.1514 18.627 13.0768 18.6773 13.0512C18.7273 13.0253 18.7672 13.0078 18.7973 12.9973C19.0381 12.9153 19.3215 12.9947 19.6479 13.236C19.9741 13.4771 20.28 13.7748 20.5662 14.1286C20.8522 14.4828 21.1958 14.8801 21.5971 15.3211C21.9987 15.7624 22.3498 16.0904 22.6507 16.3061L22.9516 16.4908C23.1526 16.614 23.4135 16.7269 23.7347 16.8295C24.0553 16.932 24.3362 16.9576 24.5773 16.9064L28.4304 16.8449C28.8115 16.8449 29.1081 16.7804 29.3184 16.6524C29.5292 16.5242 29.6544 16.3829 29.6948 16.2292C29.7351 16.0754 29.7372 15.9008 29.7024 15.7057C29.6668 15.5111 29.6316 15.375 29.5966 15.2981Z" fill="white"/>
</svg>
