<svg width="22" height="22" viewBox="0 0 22 22" fill="none" xmlns="http://www.w3.org/2000/svg">
<path fill-rule="evenodd" clip-rule="evenodd" d="M10.898 0.659243C5.23876 0.659243 0.65918 5.23608 0.65918 10.898C0.65918 13.0333 1.31035 15.0083 2.46701 16.7054C2.55414 16.8346 2.57772 16.9966 2.53093 17.1453L1.49105 20.6249L4.8987 19.4489V19.4491C5.04618 19.3998 5.20813 19.4206 5.33865 19.505C6.93471 20.5406 8.84557 21.1368 10.8978 21.1368C16.5597 21.1368 21.1366 16.5599 21.1366 10.898C21.1366 5.23601 16.5597 0.65918 10.8978 0.65918L10.898 0.659243ZM6.70651 5.12263L8.5702 8.20227L7.7942 8.97022L7.79438 8.9704C7.6319 9.13413 7.59923 9.38643 7.71439 9.58624C8.89853 11.6367 10.3014 13.2319 12.2658 14.0977C12.4585 14.1834 12.6838 14.1421 12.8338 13.9937L13.6576 13.1699L16.6653 15.0497C16.3323 15.7992 15.8981 16.2455 15.4015 16.5055C14.8262 16.8067 14.1237 16.8636 13.3218 16.6974C11.718 16.3649 9.78094 15.1045 8.20238 13.4897C6.62382 11.8751 5.40216 9.91158 5.09079 8.3141C4.9351 7.51543 5.00384 6.82765 5.2988 6.28239C5.5527 5.81282 5.98407 5.4109 6.70668 5.12252L6.70651 5.12263Z" fill="white"/>
</svg>
