<svg width="175" height="82" viewBox="0 0 175 82" fill="none" xmlns="http://www.w3.org/2000/svg">
<path d="M7.02 61V55.78H16.62V25.9L9.12 30.58L6.6 25.96L18.42 18.7H22.8V55.78H31.8V61H7.02ZM53.9766 61.54C49.0566 61.54 45.2966 59.68 42.6966 55.96C40.1366 52.2 38.8566 46.82 38.8566 39.82C38.8566 32.7 40.1366 27.32 42.6966 23.68C45.2966 20 49.0566 18.16 53.9766 18.16C58.9366 18.16 62.6966 20 65.2566 23.68C67.8166 27.32 69.0966 32.68 69.0966 39.76C69.0966 46.8 67.7966 52.2 65.1966 55.96C62.6366 59.68 58.8966 61.54 53.9766 61.54ZM53.9766 56.38C57.0166 56.38 59.2766 55.04 60.7566 52.36C62.2366 49.68 62.9766 45.48 62.9766 39.76C62.9766 34.04 62.2366 29.88 60.7566 27.28C59.3166 24.64 57.0566 23.32 53.9766 23.32C50.9366 23.32 48.6766 24.64 47.1966 27.28C45.7166 29.92 44.9766 34.08 44.9766 39.76C44.9766 45.48 45.7166 49.68 47.1966 52.36C48.6766 55.04 50.9366 56.38 53.9766 56.38Z" fill="#FDA539"/>
<path d="M88.06 34.22L87.46 32.94C88.06 32.6867 88.5333 32.3333 88.88 31.88C89.2267 31.4133 89.4667 30.7733 89.6 29.96C89.7467 29.1467 89.82 28.08 89.82 26.76V24.28H96.88V34H95.26V25.58H91.34V26.82C91.34 28.34 91.2267 29.5933 91 30.58C90.7867 31.5667 90.44 32.3467 89.96 32.92C89.48 33.4933 88.8467 33.9267 88.06 34.22ZM104.484 34.18C102.951 34.18 101.738 33.7333 100.844 32.84C99.951 31.9333 99.5044 30.7067 99.5044 29.16C99.5044 28.16 99.7044 27.28 100.104 26.52C100.504 25.7467 101.051 25.1533 101.744 24.74C102.451 24.3133 103.264 24.1 104.184 24.1C105.504 24.1 106.538 24.5267 107.284 25.38C108.031 26.22 108.404 27.38 108.404 28.86V29.48H101.084C101.138 30.5867 101.458 31.4333 102.044 32.02C102.631 32.5933 103.444 32.88 104.484 32.88C105.071 32.88 105.631 32.7933 106.164 32.62C106.698 32.4333 107.204 32.1333 107.684 31.72L108.244 32.86C107.804 33.2733 107.244 33.6 106.564 33.84C105.884 34.0667 105.191 34.18 104.484 34.18ZM104.224 25.3C103.304 25.3 102.578 25.5867 102.044 26.16C101.511 26.7333 101.198 27.4867 101.104 28.42H107.004C106.964 27.4333 106.704 26.6667 106.224 26.12C105.758 25.5733 105.091 25.3 104.224 25.3ZM112.944 34V25.58H109.424V24.28H118.104V25.58H114.564V34H112.944ZM88.6 61V51.28H90.22V55.32H95.52V51.28H97.14V61H95.52V56.64H90.22V61H88.6ZM103.418 61.18C102.752 61.18 102.152 61.0533 101.618 60.8C101.098 60.5333 100.685 60.1733 100.378 59.72C100.072 59.2667 99.9183 58.76 99.9183 58.2C99.9183 57.4933 100.098 56.9333 100.458 56.52C100.832 56.1067 101.438 55.8133 102.278 55.64C103.132 55.4533 104.292 55.36 105.758 55.36H106.398V54.74C106.398 53.9133 106.225 53.32 105.878 52.96C105.545 52.5867 105.005 52.4 104.258 52.4C103.672 52.4 103.105 52.4867 102.558 52.66C102.012 52.82 101.452 53.0867 100.878 53.46L100.318 52.28C100.825 51.92 101.438 51.6333 102.158 51.42C102.892 51.2067 103.592 51.1 104.258 51.1C105.512 51.1 106.438 51.4067 107.038 52.02C107.652 52.6333 107.958 53.5867 107.958 54.88V61H106.438V59.32C106.185 59.8933 105.792 60.3467 105.258 60.68C104.738 61.0133 104.125 61.18 103.418 61.18ZM103.678 59.96C104.478 59.96 105.132 59.6867 105.638 59.14C106.145 58.58 106.398 57.8733 106.398 57.02V56.42H105.778C104.698 56.42 103.845 56.4733 103.218 56.58C102.605 56.6733 102.172 56.8467 101.918 57.1C101.678 57.34 101.558 57.6733 101.558 58.1C101.558 58.6467 101.745 59.0933 102.118 59.44C102.505 59.7867 103.025 59.96 103.678 59.96ZM116.276 64.6V51.28H117.856V53.02C118.15 52.42 118.583 51.9533 119.156 51.62C119.743 51.2733 120.423 51.1 121.196 51.1C122.063 51.1 122.816 51.3067 123.456 51.72C124.11 52.12 124.61 52.7 124.956 53.46C125.316 54.2067 125.496 55.1 125.496 56.14C125.496 57.1667 125.316 58.06 124.956 58.82C124.61 59.5667 124.11 60.1467 123.456 60.56C122.816 60.9733 122.063 61.18 121.196 61.18C120.45 61.18 119.783 61.0133 119.196 60.68C118.61 60.3467 118.176 59.8867 117.896 59.3V64.6H116.276ZM120.856 59.88C121.763 59.88 122.49 59.56 123.036 58.92C123.583 58.2667 123.856 57.34 123.856 56.14C123.856 54.9267 123.583 54 123.036 53.36C122.49 52.72 121.763 52.4 120.856 52.4C119.95 52.4 119.223 52.72 118.676 53.36C118.13 54 117.856 54.9267 117.856 56.14C117.856 57.34 118.13 58.2667 118.676 58.92C119.223 59.56 119.95 59.88 120.856 59.88ZM128.112 61V51.28H129.732V54.74H132.672C133.912 54.74 134.852 55.0133 135.492 55.56C136.132 56.0933 136.452 56.8533 136.452 57.84C136.452 58.8133 136.118 59.5867 135.452 60.16C134.798 60.72 133.872 61 132.672 61H128.112ZM137.892 61V51.28H139.512V61H137.892ZM129.732 59.84H132.512C133.258 59.84 133.838 59.68 134.252 59.36C134.678 59.04 134.892 58.54 134.892 57.86C134.892 57.1933 134.685 56.7 134.272 56.38C133.858 56.06 133.272 55.9 132.512 55.9H129.732V59.84ZM142.721 61V51.28H144.341V55.32H149.641V51.28H151.261V61H149.641V56.64H144.341V61H142.721ZM154.459 61V51.28H156.079V55.34H157.899L161.079 51.28H162.859L159.479 55.66C159.826 55.7933 160.139 56.0133 160.419 56.32C160.699 56.6267 161.013 57.0667 161.359 57.64L163.359 61H161.619L159.859 58.06C159.526 57.4867 159.206 57.1067 158.899 56.92C158.593 56.7333 158.159 56.64 157.599 56.64H156.079V61H154.459ZM169.387 61.18C167.853 61.18 166.64 60.7333 165.747 59.84C164.853 58.9333 164.407 57.7067 164.407 56.16C164.407 55.16 164.607 54.28 165.007 53.52C165.407 52.7467 165.953 52.1533 166.647 51.74C167.353 51.3133 168.167 51.1 169.087 51.1C170.407 51.1 171.44 51.5267 172.187 52.38C172.933 53.22 173.307 54.38 173.307 55.86V56.48H165.987C166.04 57.5867 166.36 58.4333 166.947 59.02C167.533 59.5933 168.347 59.88 169.387 59.88C169.973 59.88 170.533 59.7933 171.067 59.62C171.6 59.4333 172.107 59.1333 172.587 58.72L173.147 59.86C172.707 60.2733 172.147 60.6 171.467 60.84C170.787 61.0667 170.093 61.18 169.387 61.18ZM169.127 52.3C168.207 52.3 167.48 52.5867 166.947 53.16C166.413 53.7333 166.1 54.4867 166.007 55.42H171.907C171.867 54.4333 171.607 53.6667 171.127 53.12C170.66 52.5733 169.993 52.3 169.127 52.3Z" fill="#FDA539"/>
</svg>
