<svg width="305" height="82" viewBox="0 0 305 82" fill="none" xmlns="http://www.w3.org/2000/svg">
<path d="M32.64 58.96L3.36 46.12V41.44L32.64 28.54V33.46L8.94 43.78L32.64 54.1V58.96ZM54.6366 61.54C51.9166 61.54 49.2766 61.12 46.7166 60.28C44.1966 59.4 42.0966 58.18 40.4166 56.62L42.5166 51.82C46.1966 54.78 50.1966 56.26 54.5166 56.26C57.2766 56.26 59.4366 55.52 60.9966 54.04C62.5566 52.52 63.3366 50.54 63.3366 48.1C63.3366 45.58 62.5966 43.52 61.1166 41.92C59.6366 40.32 57.5766 39.52 54.9366 39.52C51.2166 39.52 48.2366 41.06 45.9966 44.14H41.6766V18.7H66.8766V23.92H47.7366V37.3C49.9766 35.34 52.8166 34.36 56.2566 34.36C58.9366 34.36 61.2566 34.92 63.2166 36.04C65.1766 37.16 66.6966 38.74 67.7766 40.78C68.8566 42.78 69.3966 45.12 69.3966 47.8C69.3966 50.52 68.7966 52.92 67.5966 55C66.3966 57.04 64.6966 58.64 62.4966 59.8C60.2966 60.96 57.6766 61.54 54.6366 61.54ZM89.9531 61.54C85.0331 61.54 81.2731 59.68 78.6731 55.96C76.1131 52.2 74.8331 46.82 74.8331 39.82C74.8331 32.7 76.1131 27.32 78.6731 23.68C81.2731 20 85.0331 18.16 89.9531 18.16C94.9131 18.16 98.6731 20 101.233 23.68C103.793 27.32 105.073 32.68 105.073 39.76C105.073 46.8 103.773 52.2 101.173 55.96C98.6131 59.68 94.8731 61.54 89.9531 61.54ZM89.9531 56.38C92.9931 56.38 95.2531 55.04 96.7331 52.36C98.2131 49.68 98.9531 45.48 98.9531 39.76C98.9531 34.04 98.2131 29.88 96.7331 27.28C95.2931 24.64 93.0331 23.32 89.9531 23.32C86.9131 23.32 84.6531 24.64 83.1731 27.28C81.6931 29.92 80.9531 34.08 80.9531 39.76C80.9531 45.48 81.6931 49.68 83.1731 52.36C84.6531 55.04 86.9131 56.38 89.9531 56.38ZM125.93 61.54C121.01 61.54 117.25 59.68 114.65 55.96C112.09 52.2 110.81 46.82 110.81 39.82C110.81 32.7 112.09 27.32 114.65 23.68C117.25 20 121.01 18.16 125.93 18.16C130.89 18.16 134.65 20 137.21 23.68C139.77 27.32 141.05 32.68 141.05 39.76C141.05 46.8 139.75 52.2 137.15 55.96C134.59 59.68 130.85 61.54 125.93 61.54ZM125.93 56.38C128.97 56.38 131.23 55.04 132.71 52.36C134.19 49.68 134.93 45.48 134.93 39.76C134.93 34.04 134.19 29.88 132.71 27.28C131.27 24.64 129.01 23.32 125.93 23.32C122.89 23.32 120.63 24.64 119.15 27.28C117.67 29.92 116.93 34.08 116.93 39.76C116.93 45.48 117.67 49.68 119.15 52.36C120.63 55.04 122.89 56.38 125.93 56.38ZM161.906 61.54C156.986 61.54 153.226 59.68 150.626 55.96C148.066 52.2 146.786 46.82 146.786 39.82C146.786 32.7 148.066 27.32 150.626 23.68C153.226 20 156.986 18.16 161.906 18.16C166.866 18.16 170.626 20 173.186 23.68C175.746 27.32 177.026 32.68 177.026 39.76C177.026 46.8 175.726 52.2 173.126 55.96C170.566 59.68 166.826 61.54 161.906 61.54ZM161.906 56.38C164.946 56.38 167.206 55.04 168.686 52.36C170.166 49.68 170.906 45.48 170.906 39.76C170.906 34.04 170.166 29.88 168.686 27.28C167.246 24.64 164.986 23.32 161.906 23.32C158.866 23.32 156.606 24.64 155.126 27.28C153.646 29.92 152.906 34.08 152.906 39.76C152.906 45.48 153.646 49.68 155.126 52.36C156.606 55.04 158.866 56.38 161.906 56.38Z" fill="#FDA539"/>
<path d="M195.54 36.6V32.7H196.56C197.027 32.02 197.36 31.24 197.56 30.36C197.76 29.4667 197.86 28.3933 197.86 27.14V24.28H204.74V32.7H206.28V36.6H204.88V34H196.92V36.6H195.54ZM198.12 32.7H203.2V25.56H199.3V27.42C199.3 28.42 199.2 29.3867 199 30.32C198.8 31.2533 198.507 32.0467 198.12 32.7ZM212.496 34.18C211.549 34.18 210.729 33.9733 210.036 33.56C209.343 33.1467 208.803 32.5667 208.416 31.82C208.043 31.06 207.856 30.1667 207.856 29.14C207.856 28.1133 208.043 27.2267 208.416 26.48C208.803 25.72 209.343 25.1333 210.036 24.72C210.729 24.3067 211.549 24.1 212.496 24.1C213.429 24.1 214.243 24.3067 214.936 24.72C215.643 25.1333 216.183 25.72 216.556 26.48C216.943 27.2267 217.136 28.1133 217.136 29.14C217.136 30.1667 216.943 31.06 216.556 31.82C216.183 32.5667 215.643 33.1467 214.936 33.56C214.243 33.9733 213.429 34.18 212.496 34.18ZM212.496 32.88C213.403 32.88 214.129 32.56 214.676 31.92C215.223 31.2667 215.496 30.34 215.496 29.14C215.496 27.9267 215.223 27 214.676 26.36C214.129 25.72 213.403 25.4 212.496 25.4C211.576 25.4 210.843 25.72 210.296 26.36C209.763 27 209.496 27.9267 209.496 29.14C209.496 30.34 209.763 31.2667 210.296 31.92C210.843 32.56 211.576 32.88 212.496 32.88ZM219.764 34V24.28H224.504C225.651 24.28 226.497 24.5 227.044 24.94C227.591 25.3667 227.864 26 227.864 26.84C227.864 27.3467 227.717 27.7867 227.424 28.16C227.144 28.5333 226.757 28.8067 226.264 28.98C226.864 29.1267 227.331 29.4067 227.664 29.82C228.011 30.2333 228.184 30.7333 228.184 31.32C228.184 32.1467 227.877 32.8 227.264 33.28C226.651 33.76 225.784 34 224.664 34H219.764ZM221.304 28.5H224.424C225.037 28.5 225.511 28.3667 225.844 28.1C226.177 27.82 226.344 27.4267 226.344 26.92C226.344 26.4267 226.177 26.0467 225.844 25.78C225.511 25.5133 225.037 25.38 224.424 25.38H221.304V28.5ZM221.304 32.9H224.604C225.271 32.9 225.777 32.76 226.124 32.48C226.471 32.2 226.644 31.7867 226.644 31.24C226.644 30.7067 226.471 30.3 226.124 30.02C225.777 29.74 225.271 29.6 224.604 29.6H221.304V32.9ZM234.762 34.18C233.815 34.18 232.995 33.9733 232.302 33.56C231.608 33.1467 231.068 32.5667 230.682 31.82C230.308 31.06 230.122 30.1667 230.122 29.14C230.122 28.1133 230.308 27.2267 230.682 26.48C231.068 25.72 231.608 25.1333 232.302 24.72C232.995 24.3067 233.815 24.1 234.762 24.1C235.695 24.1 236.508 24.3067 237.202 24.72C237.908 25.1333 238.448 25.72 238.822 26.48C239.208 27.2267 239.402 28.1133 239.402 29.14C239.402 30.1667 239.208 31.06 238.822 31.82C238.448 32.5667 237.908 33.1467 237.202 33.56C236.508 33.9733 235.695 34.18 234.762 34.18ZM234.762 32.88C235.668 32.88 236.395 32.56 236.942 31.92C237.488 31.2667 237.762 30.34 237.762 29.14C237.762 27.9267 237.488 27 236.942 26.36C236.395 25.72 235.668 25.4 234.762 25.4C233.842 25.4 233.108 25.72 232.562 26.36C232.028 27 231.762 27.9267 231.762 29.14C231.762 30.34 232.028 31.2667 232.562 31.92C233.108 32.56 233.842 32.88 234.762 32.88ZM241.294 34.22L240.694 32.94C241.294 32.6867 241.768 32.3333 242.114 31.88C242.461 31.4133 242.701 30.7733 242.834 29.96C242.981 29.1467 243.054 28.08 243.054 26.76V24.28H250.114V34H248.494V25.58H244.574V26.82C244.574 28.34 244.461 29.5933 244.234 30.58C244.021 31.5667 243.674 32.3467 243.194 32.92C242.714 33.4933 242.081 33.9267 241.294 34.22ZM253.319 34V24.28H254.939V27.74H257.879C259.119 27.74 260.059 28.0133 260.699 28.56C261.339 29.0933 261.659 29.8533 261.659 30.84C261.659 31.8133 261.325 32.5867 260.659 33.16C260.005 33.72 259.079 34 257.879 34H253.319ZM254.939 32.84H257.719C258.465 32.84 259.045 32.68 259.459 32.36C259.885 32.04 260.099 31.54 260.099 30.86C260.099 30.1933 259.892 29.7 259.479 29.38C259.065 29.06 258.479 28.9 257.719 28.9H254.939V32.84ZM264.061 34V24.28H265.681V28.32H270.981V24.28H272.601V34H270.981V29.64H265.681V34H264.061ZM275.799 34V24.28H277.419V27.74H280.359C281.599 27.74 282.539 28.0133 283.179 28.56C283.819 29.0933 284.139 29.8533 284.139 30.84C284.139 31.8133 283.806 32.5867 283.139 33.16C282.486 33.72 281.559 34 280.359 34H275.799ZM285.579 34V24.28H287.199V34H285.579ZM277.419 32.84H280.199C280.946 32.84 281.526 32.68 281.939 32.36C282.366 32.04 282.579 31.54 282.579 30.86C282.579 30.1933 282.373 29.7 281.959 29.38C281.546 29.06 280.959 28.9 280.199 28.9H277.419V32.84ZM289.189 34L293.229 28.98L289.429 24.28H291.349L294.169 27.86L297.009 24.28H298.909L295.109 28.98L299.149 34H297.229L294.149 30.14L291.109 34H289.189ZM196.6 61V51.28H198.22V55.34H200.04L203.22 51.28H205L201.62 55.66C201.967 55.7933 202.28 56.0133 202.56 56.32C202.84 56.6267 203.153 57.0667 203.5 57.64L205.5 61H203.76L202 58.06C201.667 57.4867 201.347 57.1067 201.04 56.92C200.733 56.7333 200.3 56.64 199.74 56.64H198.22V61H196.6ZM206.587 61.22L205.987 59.94C206.587 59.6867 207.061 59.3333 207.407 58.88C207.754 58.4133 207.994 57.7733 208.127 56.96C208.274 56.1467 208.347 55.08 208.347 53.76V51.28H215.407V61H213.787V52.58H209.867V53.82C209.867 55.34 209.754 56.5933 209.527 57.58C209.314 58.5667 208.967 59.3467 208.487 59.92C208.007 60.4933 207.374 60.9267 206.587 61.22ZM218.612 61V51.28H220.092V58.8L225.712 51.28H227.092V61H225.612V53.48L219.992 61H218.612ZM234.691 61.18C233.158 61.18 231.945 60.7333 231.051 59.84C230.158 58.9333 229.711 57.7067 229.711 56.16C229.711 55.16 229.911 54.28 230.311 53.52C230.711 52.7467 231.258 52.1533 231.951 51.74C232.658 51.3133 233.471 51.1 234.391 51.1C235.711 51.1 236.745 51.5267 237.491 52.38C238.238 53.22 238.611 54.38 238.611 55.86V56.48H231.291C231.345 57.5867 231.665 58.4333 232.251 59.02C232.838 59.5933 233.651 59.88 234.691 59.88C235.278 59.88 235.838 59.7933 236.371 59.62C236.905 59.4333 237.411 59.1333 237.891 58.72L238.451 59.86C238.011 60.2733 237.451 60.6 236.771 60.84C236.091 61.0667 235.398 61.18 234.691 61.18ZM234.431 52.3C233.511 52.3 232.785 52.5867 232.251 53.16C231.718 53.7333 231.405 54.4867 231.311 55.42H237.211C237.171 54.4333 236.911 53.6667 236.431 53.12C235.965 52.5733 235.298 52.3 234.431 52.3ZM241.131 61V51.28H242.751V55.32H248.051V51.28H249.671V61H248.051V56.64H242.751V61H241.131ZM254.89 61V52.58H251.37V51.28H260.05V52.58H256.51V61H254.89ZM265.777 61.18C264.831 61.18 264.011 60.9733 263.317 60.56C262.624 60.1467 262.084 59.5667 261.697 58.82C261.324 58.06 261.137 57.1667 261.137 56.14C261.137 55.1133 261.324 54.2267 261.697 53.48C262.084 52.72 262.624 52.1333 263.317 51.72C264.011 51.3067 264.831 51.1 265.777 51.1C266.711 51.1 267.524 51.3067 268.217 51.72C268.924 52.1333 269.464 52.72 269.837 53.48C270.224 54.2267 270.417 55.1133 270.417 56.14C270.417 57.1667 270.224 58.06 269.837 58.82C269.464 59.5667 268.924 60.1467 268.217 60.56C267.524 60.9733 266.711 61.18 265.777 61.18ZM265.777 59.88C266.684 59.88 267.411 59.56 267.957 58.92C268.504 58.2667 268.777 57.34 268.777 56.14C268.777 54.9267 268.504 54 267.957 53.36C267.411 52.72 266.684 52.4 265.777 52.4C264.857 52.4 264.124 52.72 263.577 53.36C263.044 54 262.777 54.9267 262.777 56.14C262.777 57.34 263.044 58.2667 263.577 58.92C264.124 59.56 264.857 59.88 265.777 59.88ZM273.045 61V51.28H277.785C278.932 51.28 279.779 51.5 280.325 51.94C280.872 52.3667 281.145 53 281.145 53.84C281.145 54.3467 280.999 54.7867 280.705 55.16C280.425 55.5333 280.039 55.8067 279.545 55.98C280.145 56.1267 280.612 56.4067 280.945 56.82C281.292 57.2333 281.465 57.7333 281.465 58.32C281.465 59.1467 281.159 59.8 280.545 60.28C279.932 60.76 279.065 61 277.945 61H273.045ZM274.585 55.5H277.705C278.319 55.5 278.792 55.3667 279.125 55.1C279.459 54.82 279.625 54.4267 279.625 53.92C279.625 53.4267 279.459 53.0467 279.125 52.78C278.792 52.5133 278.319 52.38 277.705 52.38H274.585V55.5ZM274.585 59.9H277.885C278.552 59.9 279.059 59.76 279.405 59.48C279.752 59.2 279.925 58.7867 279.925 58.24C279.925 57.7067 279.752 57.3 279.405 57.02C279.059 56.74 278.552 56.6 277.885 56.6H274.585V59.9Z" fill="#FDA539"/>
</svg>
