<svg width="174" height="82" viewBox="0 0 174 82" fill="none" xmlns="http://www.w3.org/2000/svg">
<path d="M7.02 61V55.78H16.62V25.9L9.12 30.58L6.6 25.96L18.42 18.7H22.8V55.78H31.8V61H7.02ZM41.0766 61V56.38L55.1766 41.26C57.1366 39.14 58.5366 37.22 59.3766 35.5C60.2566 33.78 60.6966 32.04 60.6966 30.28C60.6966 25.72 58.0166 23.44 52.6566 23.44C48.5766 23.44 44.9166 24.98 41.6766 28.06L39.4566 23.32C41.0566 21.76 43.0966 20.52 45.5766 19.6C48.0566 18.64 50.6366 18.16 53.3166 18.16C57.6766 18.16 61.0166 19.16 63.3366 21.16C65.6966 23.16 66.8766 26.02 66.8766 29.74C66.8766 32.26 66.2566 34.72 65.0166 37.12C63.8166 39.52 61.9166 42.08 59.3166 44.8L48.8766 55.78H68.5566V61H41.0766Z" fill="#FDA539"/>
<path d="M88.6 34V24.28H89.94L93.6 30.78L97.26 24.28H98.58V34H97.14V26.92L94 32.44H93.18L90.04 26.92V34H88.6ZM106.184 34.18C104.65 34.18 103.437 33.7333 102.544 32.84C101.65 31.9333 101.204 30.7067 101.204 29.16C101.204 28.16 101.404 27.28 101.804 26.52C102.204 25.7467 102.75 25.1533 103.444 24.74C104.15 24.3133 104.964 24.1 105.884 24.1C107.204 24.1 108.237 24.5267 108.984 25.38C109.73 26.22 110.104 27.38 110.104 28.86V29.48H102.784C102.837 30.5867 103.157 31.4333 103.744 32.02C104.33 32.5933 105.144 32.88 106.184 32.88C106.77 32.88 107.33 32.7933 107.864 32.62C108.397 32.4333 108.904 32.1333 109.384 31.72L109.944 32.86C109.504 33.2733 108.944 33.6 108.264 33.84C107.584 34.0667 106.89 34.18 106.184 34.18ZM105.924 25.3C105.004 25.3 104.277 25.5867 103.744 26.16C103.21 26.7333 102.897 27.4867 102.804 28.42H108.704C108.664 27.4333 108.404 26.6667 107.924 26.12C107.457 25.5733 106.79 25.3 105.924 25.3ZM116.763 34.18C115.79 34.18 114.95 33.9733 114.243 33.56C113.537 33.1333 112.99 32.54 112.603 31.78C112.23 31.0067 112.043 30.1067 112.043 29.08C112.043 27.5333 112.463 26.32 113.303 25.44C114.143 24.5467 115.297 24.1 116.763 24.1C117.363 24.1 117.957 24.2067 118.543 24.42C119.13 24.6333 119.617 24.9333 120.003 25.32L119.443 26.5C119.057 26.1267 118.63 25.8533 118.163 25.68C117.71 25.5067 117.277 25.42 116.863 25.42C115.85 25.42 115.07 25.74 114.523 26.38C113.977 27.0067 113.703 27.9133 113.703 29.1C113.703 30.26 113.977 31.18 114.523 31.86C115.07 32.5267 115.85 32.86 116.863 32.86C117.277 32.86 117.71 32.7733 118.163 32.6C118.63 32.4267 119.057 32.1467 119.443 31.76L120.003 32.94C119.617 33.3267 119.123 33.6333 118.523 33.86C117.937 34.0733 117.35 34.18 116.763 34.18ZM121.277 34L122.777 31.4C123.177 30.6933 123.69 30.2333 124.317 30.02C123.49 29.9 122.85 29.6 122.397 29.12C121.943 28.6267 121.717 27.9867 121.717 27.2C121.717 26.3067 122.01 25.6 122.597 25.08C123.197 24.5467 124.09 24.28 125.277 24.28H129.657V34H128.117V30.3H126.697C126.163 30.3 125.71 30.4333 125.337 30.7C124.977 30.9667 124.683 31.2933 124.457 31.68L123.137 34H121.277ZM125.577 29.12H128.117V25.42H125.577C124.79 25.42 124.21 25.5867 123.837 25.92C123.463 26.24 123.277 26.6867 123.277 27.26C123.277 27.8467 123.463 28.3067 123.837 28.64C124.21 28.96 124.79 29.12 125.577 29.12ZM141.258 36.6V34H132.858V24.28H134.478V32.7H139.498V24.28H141.118V32.7H142.658V36.6H141.258ZM149.211 34.18C147.678 34.18 146.464 33.7333 145.571 32.84C144.678 31.9333 144.231 30.7067 144.231 29.16C144.231 28.16 144.431 27.28 144.831 26.52C145.231 25.7467 145.778 25.1533 146.471 24.74C147.178 24.3133 147.991 24.1 148.911 24.1C150.231 24.1 151.264 24.5267 152.011 25.38C152.758 26.22 153.131 27.38 153.131 28.86V29.48H145.811C145.864 30.5867 146.184 31.4333 146.771 32.02C147.358 32.5933 148.171 32.88 149.211 32.88C149.798 32.88 150.358 32.7933 150.891 32.62C151.424 32.4333 151.931 32.1333 152.411 31.72L152.971 32.86C152.531 33.2733 151.971 33.6 151.291 33.84C150.611 34.0667 149.918 34.18 149.211 34.18ZM148.951 25.3C148.031 25.3 147.304 25.5867 146.771 26.16C146.238 26.7333 145.924 27.4867 145.831 28.42H151.731C151.691 27.4333 151.431 26.6667 150.951 26.12C150.484 25.5733 149.818 25.3 148.951 25.3ZM155.651 34V24.28H160.391C161.537 24.28 162.384 24.5 162.931 24.94C163.477 25.3667 163.751 26 163.751 26.84C163.751 27.3467 163.604 27.7867 163.311 28.16C163.031 28.5333 162.644 28.8067 162.151 28.98C162.751 29.1267 163.217 29.4067 163.551 29.82C163.897 30.2333 164.071 30.7333 164.071 31.32C164.071 32.1467 163.764 32.8 163.151 33.28C162.537 33.76 161.671 34 160.551 34H155.651ZM157.191 28.5H160.311C160.924 28.5 161.397 28.3667 161.731 28.1C162.064 27.82 162.231 27.4267 162.231 26.92C162.231 26.4267 162.064 26.0467 161.731 25.78C161.397 25.5133 160.924 25.38 160.311 25.38H157.191V28.5ZM157.191 32.9H160.491C161.157 32.9 161.664 32.76 162.011 32.48C162.357 32.2 162.531 31.7867 162.531 31.24C162.531 30.7067 162.357 30.3 162.011 30.02C161.664 29.74 161.157 29.6 160.491 29.6H157.191V32.9ZM88.6 61V51.28H95.42V52.58H90.22V61H88.6ZM100.371 61.18C99.7047 61.18 99.1047 61.0533 98.5714 60.8C98.0514 60.5333 97.6381 60.1733 97.3314 59.72C97.0247 59.2667 96.8714 58.76 96.8714 58.2C96.8714 57.4933 97.0514 56.9333 97.4114 56.52C97.7847 56.1067 98.3914 55.8133 99.2314 55.64C100.085 55.4533 101.245 55.36 102.711 55.36H103.351V54.74C103.351 53.9133 103.178 53.32 102.831 52.96C102.498 52.5867 101.958 52.4 101.211 52.4C100.625 52.4 100.058 52.4867 99.5114 52.66C98.9647 52.82 98.4047 53.0867 97.8314 53.46L97.2714 52.28C97.7781 51.92 98.3914 51.6333 99.1114 51.42C99.8447 51.2067 100.545 51.1 101.211 51.1C102.465 51.1 103.391 51.4067 103.991 52.02C104.605 52.6333 104.911 53.5867 104.911 54.88V61H103.391V59.32C103.138 59.8933 102.745 60.3467 102.211 60.68C101.691 61.0133 101.078 61.18 100.371 61.18ZM100.631 59.96C101.431 59.96 102.085 59.6867 102.591 59.14C103.098 58.58 103.351 57.8733 103.351 57.02V56.42H102.731C101.651 56.42 100.798 56.4733 100.171 56.58C99.5581 56.6733 99.1247 56.8467 98.8714 57.1C98.6314 57.34 98.5114 57.6733 98.5114 58.1C98.5114 58.6467 98.6981 59.0933 99.0714 59.44C99.4581 59.7867 99.9781 59.96 100.631 59.96ZM108.093 64.6V51.28H109.673V53.02C109.966 52.42 110.399 51.9533 110.973 51.62C111.559 51.2733 112.239 51.1 113.013 51.1C113.879 51.1 114.633 51.3067 115.273 51.72C115.926 52.12 116.426 52.7 116.773 53.46C117.133 54.2067 117.313 55.1 117.313 56.14C117.313 57.1667 117.133 58.06 116.773 58.82C116.426 59.5667 115.926 60.1467 115.273 60.56C114.633 60.9733 113.879 61.18 113.013 61.18C112.266 61.18 111.599 61.0133 111.013 60.68C110.426 60.3467 109.993 59.8867 109.713 59.3V64.6H108.093ZM112.673 59.88C113.579 59.88 114.306 59.56 114.853 58.92C115.399 58.2667 115.673 57.34 115.673 56.14C115.673 54.9267 115.399 54 114.853 53.36C114.306 52.72 113.579 52.4 112.673 52.4C111.766 52.4 111.039 52.72 110.493 53.36C109.946 54 109.673 54.9267 109.673 56.14C109.673 57.34 109.946 58.2667 110.493 58.92C111.039 59.56 111.766 59.88 112.673 59.88ZM123.008 61.18C122.341 61.18 121.741 61.0533 121.208 60.8C120.688 60.5333 120.275 60.1733 119.968 59.72C119.661 59.2667 119.508 58.76 119.508 58.2C119.508 57.4933 119.688 56.9333 120.048 56.52C120.421 56.1067 121.028 55.8133 121.868 55.64C122.721 55.4533 123.881 55.36 125.348 55.36H125.988V54.74C125.988 53.9133 125.815 53.32 125.468 52.96C125.135 52.5867 124.595 52.4 123.848 52.4C123.261 52.4 122.695 52.4867 122.148 52.66C121.601 52.82 121.041 53.0867 120.468 53.46L119.908 52.28C120.415 51.92 121.028 51.6333 121.748 51.42C122.481 51.2067 123.181 51.1 123.848 51.1C125.101 51.1 126.028 51.4067 126.628 52.02C127.241 52.6333 127.548 53.5867 127.548 54.88V61H126.028V59.32C125.775 59.8933 125.381 60.3467 124.848 60.68C124.328 61.0133 123.715 61.18 123.008 61.18ZM123.268 59.96C124.068 59.96 124.721 59.6867 125.228 59.14C125.735 58.58 125.988 57.8733 125.988 57.02V56.42H125.368C124.288 56.42 123.435 56.4733 122.808 56.58C122.195 56.6733 121.761 56.8467 121.508 57.1C121.268 57.34 121.148 57.6733 121.148 58.1C121.148 58.6467 121.335 59.0933 121.708 59.44C122.095 59.7867 122.615 59.96 123.268 59.96ZM130.709 61V51.28H132.329V55.32H137.629V51.28H139.249V61H137.629V56.64H132.329V61H130.709ZM144.468 61V52.58H140.948V51.28H149.628V52.58H146.088V61H144.468ZM151.334 61V51.28H152.814V58.8L158.434 51.28H159.814V61H158.334V53.48L152.714 61H151.334ZM163.014 61V51.28H164.494V58.8L170.114 51.28H171.494V61H170.014V53.48L164.394 61H163.014Z" fill="#FDA539"/>
</svg>
